<svg width="16" height="17" viewBox="0 0 16 17" fill="none" xmlns="http://www.w3.org/2000/svg">
<path d="M8 2.04688C8.27614 2.04688 8.5 2.27073 8.5 2.54688V11.3398L11.6464 8.19332C11.8417 7.99806 12.1583 7.99806 12.3536 8.19332C12.5488 8.38858 12.5488 8.70517 12.3536 8.90043L8.35355 12.9004C8.3516 12.9024 8.34964 12.9043 8.34766 12.9062C8.34562 12.9082 8.34356 12.9102 8.34149 12.9121C8.25394 12.994 8.13691 13.0448 8.00805 13.0468C8.00537 13.0469 8.00269 13.0469 8 13.0469C7.99733 13.0469 7.99468 13.0469 7.99202 13.0468C7.86094 13.0448 7.74211 12.9923 7.65408 12.9079C7.65278 12.9067 7.6515 12.9054 7.65021 12.9042C7.64895 12.9029 7.6477 12.9017 7.64645 12.9004L3.64645 8.90043C3.45118 8.70517 3.45118 8.38858 3.64645 8.19332C3.84171 7.99806 4.15829 7.99806 4.35355 8.19332L7.5 11.3398V2.54688C7.5 2.27073 7.72386 2.04688 8 2.04688Z" fill="#717171"/>
<path d="M2 14.5469C1.72386 14.5469 1.5 14.7707 1.5 15.0469C1.5 15.323 1.72386 15.5469 2 15.5469H14C14.2761 15.5469 14.5 15.323 14.5 15.0469C14.5 14.7707 14.2761 14.5469 14 14.5469H2Z" fill="#717171"/>
</svg>
